<?xml version="1.0" encoding="utf-8"?>

<!DOCTYPE svg PUBLIC "-//W3C//DTD SVG 1.1//EN" "http://www.w3.org/Graphics/SVG/1.1/DTD/svg11.dtd">
<!-- Uploaded to: SVG Repo, www.svgrepo.com, Generator: SVG Repo Mixer Tools -->
<svg height="800px" width="800px" version="1.1" id="_x32_" xmlns="http://www.w3.org/2000/svg" xmlns:xlink="http://www.w3.org/1999/xlink" 
	 viewBox="0 0 512 512"  xml:space="preserve">
<style type="text/css">
	.st0{fill:#000000;}
</style>
<g>
	<path class="st0" d="M384.909,242.837c5.937-16.514-2.656-34.717-19.17-40.646l-242.692-87.124
		c-16.524-5.937-34.727,2.646-40.655,19.17c-5.928,16.523,2.656,34.717,19.178,40.646l179.255,64.351
		c2.106,2.577,3.822,4.996,4.832,7.095c22.146,46.226-26.97,120.38-52.973,82.824c-25.916-37.433-61.4-67.189-101.689-40.672
		l-12.92-10.246c-9.07-10.821-10.716-26.813,12.954-49.36c-18.665-5.328-39.183,17.924-40.707,40.733
		c-5.738,0.584-12.641,1.907-23.279,3.674c-23.112,3.848-28.902-21.189-1.933-42.36c-59.702,1.915-67.406,59.702-20.902,157.3
		c10.569,22.19,20.362,38.592,12.188,67.564c-8.471,30.026-24.515,35.658-11.883,49.029c19.309,18.569,162.358,0.053,261.365-42.762
		c121.799-52.668,74.145-162.227,52.286-198.425C369.961,262.433,380.634,254.746,384.909,242.837z"/>
	<path class="st0" d="M457.687,137.388c-22.208,0-40.202,18.002-40.202,40.202c0,22.198,17.994,40.201,40.202,40.201
		c22.207,0,40.202-18.003,40.202-40.201C497.889,155.39,479.894,137.388,457.687,137.388z"/>
	<path class="st0" d="M218.39,255.712c0-8.723-7.069-15.8-15.801-15.8c-8.723,0-15.801,7.077-15.801,15.8
		c0,8.732,7.078,15.801,15.801,15.801C211.321,271.513,218.39,264.444,218.39,255.712z"/>
	<path class="st0" d="M100.753,234.228c7.678,0,13.902-6.225,13.902-13.912c0-7.678-6.224-13.894-13.902-13.894
		c-7.687,0-13.912,6.216-13.912,13.894C86.841,228.003,93.065,234.228,100.753,234.228z"/>
	<path class="st0" d="M444.289,124.869l-37.286-77.897c-39.488-71.263-96.232-45.06-124.367-26.804L150.991,105.56l217.063,77.923
		l11.022-77.766l2.89-23.113l8.226,58.91l15.923,17.829C411.26,141.732,425.99,128.238,444.289,124.869z"/>
</g>
</svg>